<?xml version="1.0" encoding="UTF-8"?>
<svg _SVGFile__filename="oldscale/mimetypes/kword_kwd.svg" version="1.0" viewBox="0 0 60 60" xmlns="http://www.w3.org/2000/svg">
 <path d="m6.6826 4.6879c-1.1054 0-1.9953 0.8962-1.9953 2.0095v46.606c0 1.113 0.8899 2.009 1.9953 2.009h46.634c1.106 0 1.996-0.896 1.996-2.009v-46.606c0-1.1129-0.89-2.0091-1.996-2.0091h-46.634z" fill="none" stroke="none" stroke-linecap="round" stroke-linejoin="round" stroke-width="8.125"/>
 <path d="m6.6826 4.6879c-1.1054 0-1.9953 0.8962-1.9953 2.0095v46.606c0 1.113 0.8899 2.009 1.9953 2.009h46.634c1.106 0 1.996-0.896 1.996-2.009v-46.606c0-1.1129-0.89-2.0091-1.996-2.0091h-46.634z" fill="none" fill-rule="evenodd"/>
 <path transform="matrix(-.46026 -.31009 -.5475 .53708 76.175 36.17)" d="m43.213 10.152c-0.923 0-1.666 0.743-1.666 1.666v38.638c0 0.923 0.743 1.666 1.666 1.666h38.938c0.923 0 1.666-0.743 1.666-1.666v-38.638c0-0.923-0.743-1.666-1.666-1.666h-38.938z" fill="none" fill-rule="evenodd" stroke="#000" stroke-linecap="round" stroke-linejoin="round" stroke-width="3.8716"/>
 <path d="m45.413 29.481l-13.205-8.896" fill="none" stroke="#000" stroke-linecap="round" stroke-linejoin="round" stroke-width="1.875"/>
 <path d="m42.522 32.317l-13.205-8.897" fill="none" stroke="#000" stroke-linecap="round" stroke-linejoin="round" stroke-width="1.875"/>
 <path d="m39.631 35.153l-13.205-8.897" fill="none" stroke="#000" stroke-linecap="round" stroke-linejoin="round" stroke-width="1.875"/>
 <path d="m36.741 37.989l-13.206-8.897" fill="none" stroke="#000" stroke-linecap="round" stroke-linejoin="round" stroke-width="1.875"/>
 <path d="m32.912 43.315l-14.764-9.947" fill="none" stroke="#000" stroke-linecap="round" stroke-linejoin="round" stroke-width="1.25"/>
 <path d="m5.7621 6.2229l4.5999 10.257-0.8947 0.815 2.9957 2.239 1.052-0.394s4.885 11.146 5.804 12.964c1.816 1.003 10.023 11.388 10.023 11.388l0.732-0.357-7.182-14.337c-1.024 0.288-2.108-0.226-2.487-1.24-0.4-1.069 0.136-2.262 1.206-2.662 1.07-0.399 2.265 0.146 2.665 1.216 0.305 0.815 0.06 1.695-0.547 2.248l7.199 14.352 0.574-0.278c-0.186-0.27-3.595-12.503-3.538-15.636-3.313-5.007-7.202-12.045-7.202-12.045l1.272-0.475-0.507-3.002-1.471-0.337-2.685-6.2021-11.609 1.486z" fill="none" stroke="none" stroke-linecap="round" stroke-linejoin="round" stroke-width="5"/>
 <path d="m5.7621 6.2229l4.5999 10.257-0.8947 0.815 2.9957 2.239 1.052-0.394s4.885 11.146 5.804 12.964c1.816 1.003 10.023 11.388 10.023 11.388l0.732-0.357-7.182-14.337c-1.024 0.288-2.108-0.226-2.487-1.24-0.4-1.069 0.136-2.262 1.206-2.662 1.07-0.399 2.265 0.146 2.665 1.216 0.305 0.815 0.06 1.695-0.547 2.248l7.199 14.352 0.574-0.278c-0.186-0.27-3.595-12.503-3.538-15.636-3.313-5.007-7.202-12.045-7.202-12.045l1.272-0.475-0.507-3.002-1.471-0.337-2.685-6.2021-11.609 1.486z" fill-rule="evenodd"/>
 <path d="m6.6826 4.6879c-1.1054 0-1.9953 0.8962-1.9953 2.0095v46.606c0 1.113 0.8899 2.009 1.9953 2.009h46.634c1.106 0 1.996-0.896 1.996-2.009v-46.606c0-1.1129-0.89-2.0091-1.996-2.0091h-46.634z" fill="none" stroke="#000" stroke-linecap="round" stroke-linejoin="round" stroke-width="3.125"/>
</svg>
