<?xml version="1.0" encoding="UTF-8"?>
<svg viewBox="0 0 304 304" xmlns="http://www.w3.org/2000/svg">
 <g transform="matrix(1.5963 0 0 1.6215 6.6747 23.143)" fill-rule="evenodd">
  <path d="m80.577 6.988c-9.7851 16.84-33.957 58.976-53.379 92.836l-25.695 44.758c-2.3125 4.007-1.4492 7.175-0.73047 8.707 1.457 3.101 4.5664 4.648 6.9883 5.066l0.48828 0.082 165.82 4e-3 -0.347-0.012c2.601 0.157 6.054-0.765 7.941-3.82 1.207-1.961 2.074-5.297-0.672-10.039l-51.34-88.309-28.41-48.847c-3.5588-6.125-7.6877-7.414-10.524-7.414-2.7696 0-6.7774 1.211-10.137 6.988h-0.0039zm-43.27 98.637c19.418-33.848 43.578-75.969 53.348-92.782l0.1172-0.183c0.125 0.187 0.2461 0.359 0.3868 0.605l28.418 48.856s45.34 77.996 49.219 84.664l-155.12-4e-3 23.629-41.156"/>
  <path d="m91.413 138.33c5.0234 0 9.0943-4.149 9.0943-9.266 0-5.113-4.0709-9.262-9.0943-9.262-5.0313 0-9.1016 4.149-9.1016 9.262 0 5.117 4.0703 9.266 9.1016 9.266"/>
  <path d="m91.413 47.562c7.2578 0 13.926 6.758 13.141 13.383l-6.2156 46.601c-0.6054 4.071-3.1015 7.051-6.9257 7.051s-6.3282-2.98-6.9258-7.051l-6.2188-46.601c-0.789-6.6249 5.8828-13.383 13.145-13.383"/>
 </g>
</svg>
