<?xml version="1.0" encoding="UTF-8"?>
<svg version="1.1" viewBox="0 0 100 156" xmlns="http://www.w3.org/2000/svg">
 <path d="m0 48c0-27 23-48 50-48s50 21 50 48c0 19-22 37-22 54 0 5-1 9-6 14v4c0 2-4 2-4 4s4 2 4 4-4 2-4 4 4 2 4 4-4 2-4 4 3 2 3 4-7 6-10 12h-22c-3-6-10-10-10-12s3-2 3-4-4-2-4-4 4-2 4-4-4-2-4-4 4-2 4-4-4-2-4-4v-4c-5-5-6-9-6-14 0-17-22-35-22-54zm5 0c0 17 21 36 21 54 0 4 1 8 4 10h40c3-2 4-6 4-10 0-18 21-37 21-54 0-23-20-41-45-41s-45 18-45 41zm17-4 2.4-1.2 17.6 33.2 1.4 32h-4.4l-1-30zm5 0 2-8h2l3 8.4 3-8.4h2l3 8.4 3-8.4h2l3 8.4 3-8.4h2l3 8.4 3-8.4h2l3 8.4 3-8.4h2l2 8-3-4.4-3 8.4h-2l-3-8.4-3 8.4h-2l-3-8.4-3 8.4h-2l-3-8.4-3 8.4h-2l-3-8.4-3 8.4h-2l-3-8.4zm29.6 64 1.4-32 17.6-33.2 2.4 1.2-16 34-1 30h-4.4z"/>
</svg>
