<?xml version="1.0" encoding="UTF-8"?>
<svg width="256" height="256" version="1.1" viewBox="0 0 2027.52 2027.52" xmlns="http://www.w3.org/2000/svg">
 <rect transform="scale(7.92)" width="256" height="256" rx="0" ry="0" fill="none"/>
 <g transform="translate(0 1235.5)">
  <path d="m2027.5-982.08v1299c0 126.42-92.536 221.66-208.19 221.66h-1543.9c-190.97-1.1369e-13 -275.46-81.798-275.46-323.86v-933.18h267.39v-263.59h1760.1zm-1760.1 391.14h-139.86v805.63c0 123.73 29.587 182.9 67.242 182.9 45.725 0 72.622-59.173 72.622-182.9zm1632.6-263.6h-1505.1v1069.2c0 86.07-16.138 147.93-40.345 196.35h1464.8c48.414 0 80.691-56.484 80.691-94.139zm-914.49 528.73h-373.27v-48.414h373.27zm0 158.69h-373.27v-48.414h373.27zm0 153.31h-373.27v-48.414h373.27zm0 147.93h-373.27v-48.414h373.27zm-290.47-758.48h895.65v89.691h-895.65zm424.96 250.13h572.89v457.45h-572.89z"/>
 </g>
</svg>
