<?xml version="1.0" encoding="utf-8"?>
<svg xmlns="http://www.w3.org/2000/svg" xmlns:xlink="http://www.w3.org/1999/xlink" version= "1.1" width="1920px" height="1300px" viewBox="-600 61 1920 1300">
<g id="layer1">
<g style="fill:none; fill-opacity:1.0; stroke-linejoin: miter">
<path d="M-600.001,59.34413C-600.4399,59.34413,-600.8608,59.518482,-601.17114,59.82883C-601.4815,60.13918,-601.6558,60.5601,-601.6558,60.999L-601.65485,1361.0C-601.65485,1361.914,-600.91394,1362.6549,-600.0,1362.6549L1320.001,1362.6559C1320.4398,1362.6559,1320.8608,1362.4814,1321.1711,1362.1711C1321.4814,1361.8608,1321.6559,1361.4398,1321.6559,1361.001L1321.6549,61.0C1321.6549,60.08604,1320.914,59.34513,1320.0,59.34513L-600.001,59.34413 Z"/>
</g>
<g>
<g style="fill:rgb(0,0,0); fill-opacity:1.0; stroke-linejoin: miter">
<path d="M-142.61491,171.59317C-151.48329,172.44443,-158.53076,174.40738,-166.16942,178.19125C-170.47357,180.29623,-175.03784,183.18115,-178.32509,185.80664C-183.03123,189.61386,-189.10902,196.40134,-192.37263,201.53326C-197.67006,209.81021,-201.09914,219.60114,-202.28165,229.74686C-202.75462,233.81445,-202.75479,1093.3903,-202.2818,1097.4346C-199.89322,1117.8909,-188.94368,1135.3441,-171.7744,1146.0096C-163.87561,1150.929,-156.52075,1153.6246,-146.32796,1155.3275C-144.10497,1155.7059,-121.330864,1155.7294,205.66571,1155.7767L555.24713,1155.8477L555.1998,1116.7792L555.12885,1077.687L545.8347,1077.6163L536.54065,1077.5691L536.6825,1064.8457C536.84796,1050.467,537.7468,933.61646,537.7468,926.56885L537.7468,921.9573L540.5374,921.9573C542.05096,921.9573,544.8178,921.88635,546.68616,921.7919L550.0444,921.65L550.0444,913.98755L550.0444,906.349L555.3654,906.34875L560.68634,906.34875L560.68634,894.7606L560.68634,883.1726L486.5464,883.17285L412.40643,883.17285L412.40643,868.8651L412.40656,854.55725L403.65625,854.55725L394.90613,854.55725L394.95343,839.70557L395.0243,824.87756L400.88934,824.8065L406.73065,824.7594L406.73065,706.1587L406.73065,587.5581L385.32806,587.5579L363.92575,587.5581L363.92575,706.1588L363.92575,824.7594L369.838,824.7593L375.75024,824.7594L375.75024,839.6582L375.75024,854.55725L367.11826,854.55725L358.48636,854.55725L358.48627,868.8651L358.48627,883.17285L337.20206,883.17285C325.14102,883.17285,315.91785,883.0781,315.91785,882.95996C315.91785,882.8417,316.0598,882.629,316.24896,882.48694C316.41452,882.3451,316.86383,881.5647,317.2422,880.73694C317.88074,879.3655,317.92807,879.05786,317.92807,876.31445C317.92807,873.5239,317.88074,873.28735,317.2422,871.93945C316.0835,869.5509,309.20157,863.0946,305.96164,861.3446C304.32986,860.4696,303.57306,860.54065,301.37378,861.67554C298.29926,863.3075,297.11688,863.0946,293.45132,860.375C292.48166,859.6417,291.37015,859.0032,290.9681,858.9325C289.97488,858.74316,288.65045,859.26355,284.70105,861.4154C279.3091,864.348,276.30566,865.38855,274.03537,865.1284C272.54538,864.9392,271.85968,864.5609,270.06226,862.85803C268.38315,861.2738,267.38992,860.89514,266.46765,861.51013C265.11963,862.36145,261.35934,862.85803,247.57193,863.92224C234.13928,864.9629,225.55466,865.1521,223.66272,864.41895C221.86542,863.73315,220.84842,862.19604,220.84842,860.1384C220.84842,859.1216,219.35861,856.49646,217.51395,854.27356C215.03076,851.24646,213.61182,849.07056,213.42267,847.9829C213.11514,846.0436,210.75024,844.4828,206.65903,843.4895C204.29413,842.8983,202.2839,842.63806,196.8446,842.1417C194.64523,841.9525,191.07419,841.574,188.92218,841.2903C186.24976,840.95935,184.23962,840.84094,182.53683,840.91187C180.24286,841.0065,179.93552,841.0774,178.51648,841.8579C177.66522,842.3071,175.48944,843.18225,173.66846,843.7971C168.58392,845.4763,164.82364,847.4153,160.54318,850.5371C150.84695,857.60803,148.9787,858.5541,143.94138,858.74316C139.2117,858.95605,133.44131,858.0575,130.6507,856.6859C128.33304,855.57434,126.5358,855.4325,117.265274,855.645C112.77185,855.73975,108.6333,855.8345,108.042114,855.8345L106.97786,855.8579L106.45761,847.5808C105.84276,837.76636,105.3461,833.084,104.731155,831.07385C104.11629,829.13464,103.619644,825.3744,103.31229,820.02966C101.96428,796.6406,100.26149,786.093,95.67363,772.61304C92.95393,764.6904,90.896454,760.1025,88.744446,757.2174C88.01129,756.2714,86.97081,754.4269,86.379456,753.1024C84.5112,748.8691,84.22743,746.5752,83.92001,733.71014C83.80173,728.43634,83.54164,722.595,83.32883,720.70306C82.099014,709.0204,79.49753,700.9088,74.53122,693.2937L73.23064,691.3071L73.94003,689.1551C74.76779,686.6483,75.16983,684.4726,76.09212,677.1176C76.4469,674.1615,76.82527,671.6784,76.87254,671.63104C76.94348,671.56006,78.78815,671.6547,80.9875,671.8438C94.20741,672.979,102.08249,672.8608,104.7785,671.489C106.05565,670.85046,107.28529,669.6918,107.80554,668.675C108.25493,667.7762,108.75151,664.7254,108.75151,662.7626C108.75151,660.87067,109.673874,659.45154,112.582794,656.8976C116.17735,653.7051,116.98152,651.955,115.84624,649.7557C115.58617,649.23517,114.782074,648.3839,114.09636,647.8636L112.79553,646.8939L114.11995,645.1912L115.42053,643.48865L115.32599,641.7148C115.207794,639.91754,114.23816,637.05597,111.96785,631.82947C111.21112,630.07947,111.16368,629.8665,111.54205,629.7247C113.15022,629.2045,115.893585,627.6198,116.792206,626.674C117.78552,625.6807,117.85646,625.5387,117.83287,624.38C117.78552,622.3462,116.36665,620.0286,111.30565,613.7378C109.74481,611.79865,108.515015,610.1431,108.56236,610.04865C108.609634,609.93024,109.29552,609.31555,110.099594,608.6533C112.9375,606.28827,113.505005,604.8223,112.9375,601.3929C112.606384,599.57214,112.629974,599.4775,113.15022,598.3186C114.04892,596.4268,113.85979,594.15643,112.582794,590.9874C112.322556,590.32526,110.45438,586.3285,108.44415,582.07166C105.133194,575.14246,104.58928,573.7944,102.95752,568.7334C101.98787,565.6356,100.900024,562.63214,100.568924,562.06445C99.41023,560.1017,96.90335,557.73676,94.278275,556.1758C83.35242,549.67224,71.716995,545.7938,56.865387,543.7602C51.80455,543.07416,42.463104,543.0033,38.986588,543.64166C30.638535,545.17896,24.111313,548.0642,18.29364,552.8179C16.283508,554.4496,12.286758,558.5409,10.820541,560.48C6.8711243,565.63574,2.6142883,573.65283,0.9825287,578.92664C-0.83847046,584.886,-1.5479431,589.8998,-1.5479431,596.7816C-1.5479431,607.4711,-0.05796814,613.7143,4.7900543,623.36316C7.509659,628.7789,8.526566,631.45135,9.401596,635.4481C10.584045,640.8635,12.381454,655.07684,11.955734,655.62067C11.719162,655.9281,11.104385,655.9044,10.016449,655.5498C9.614487,655.43146,9.330658,655.6917,8.361099,657.087C7.2259064,658.7425,7.20224,658.766,6.3272095,658.62415L5.452179,658.48224L4.0569,662.1007C3.2764893,664.08716,1.5264435,668.58044,0.17843628,672.0569L-2.2574158,678.395L-4.0074615,679.6956C-8.524399,683.101,-14.602234,688.9662,-17.842178,693.0336C-21.29493,697.3613,-24.298378,702.4461,-26.072105,706.9395C-26.852516,708.94965,-27.18354,709.44617,-29.54853,712.14215C-34.65673,717.9835,-37.541885,722.05115,-38.10948,724.1796C-38.416916,725.40955,-39.64672,727.2303,-42.957596,731.3926C-45.629936,734.7508,-49.768494,740.7577,-51.8023,744.21063C-55.18412,749.9571,-56.413925,753.2918,-58.305862,761.6162C-61.14376,774.1267,-62.420746,783.255,-62.704582,792.5967C-62.82287,796.1676,-62.988426,799.3364,-63.059364,799.62024C-63.390465,800.70825,-64.88027,800.0934,-67.71825,797.7047C-70.8399,795.1033,-74.88393,793.1876,-79.873825,791.9818C-81.883965,791.50867,-82.85368,791.3904,-84.58006,791.4614C-86.49567,791.53235,-86.874084,791.6034,-87.890945,792.2418C-89.28622,793.11694,-90.44504,794.74866,-91.10721,796.80615C-91.50925,798.0359,-91.65117,799.171,-91.74574,801.8906C-91.86398,806.00574,-91.48562,808.7727,-90.20859,812.9347C-88.292946,819.15454,-87.53616,823.0094,-87.53616,826.46216C-87.53616,828.6144,-87.58351,828.8507,-88.10376,829.3711C-88.45854,829.7257,-89.04977,829.98584,-89.80655,830.08044C-93.9451,830.6008,-96.16818,831.4757,-96.80667,832.8002C-97.445206,834.172,-97.75264,837.1515,-97.75264,841.905C-97.75264,848.43225,-97.32692,851.6011,-95.600586,858.01025C-93.897835,864.3009,-93.42485,882.629,-94.65462,894.1697C-95.00931,897.5043,-96.92491,909.8727,-99.24257,923.7312C-101.18176,935.3429,-101.93849,941.25525,-102.43515,948.3262C-102.8372,954.2623,-103.357445,957.54956,-104.09059,959.20496C-104.77643,960.74207,-105.06019,963.4855,-105.27309,971.266C-105.50954,979.3302,-105.793335,982.54663,-106.47918,984.1548C-107.16502,985.7866,-107.37784,988.2461,-107.661674,998.1078C-107.85086,1004.84766,-107.85086,1009.6012,-107.661674,1016.3176C-107.35425,1027.0543,-107.14139,1029.3246,-106.33734,1030.5072C-105.651505,1031.524,-105.27313,1032.8722,-105.27313,1034.2909C-105.27313,1035.8756,-104.87105,1037.0105,-104.09064,1037.7676C-103.381165,1038.4296,-103.07378,1039.1392,-102.81357,1040.6763C-102.52981,1042.379,-96.783035,1049.0718,-91.10725,1054.2981C-86.8031,1058.2948,-85.54974,1059.1935,-83.46863,1059.832C-82.52267,1060.1157,-79.40102,1061.3456,-76.53937,1062.5516C-70.39059,1065.1532,-67.5527,1066.2646,-62.089806,1068.1093C-59.866768,1068.866,-57.430923,1069.7885,-56.69776,1070.1432C-54.285583,1071.3258,-53.31595,1072.9102,-52.89023,1076.3159L-52.724762,1077.5692L-88.57683,1077.569L-124.428925,1077.5691L-124.42884,740.92316L-124.428795,404.2774L339.21237,404.27728L802.85364,404.27692L802.85364,621.37634L802.85345,838.4756L841.9931,838.4758L881.13245,838.4758L881.0616,534.8678C880.9906,251.57419,880.9669,231.0939,880.58844,228.5636C878.34174,213.14423,871.9329,200.27917,861.4801,190.1336C857.86163,186.63348,855.78064,184.9306,852.16235,182.49484C842.56067,176.08582,832.8882,172.72772,820.70874,171.56903C817.53973,171.28528,-139.54053,171.28574,-142.61491,171.59317 Z M561.51434,257.34454C566.17316,258.59796,569.55505,260.5609,572.9841,264.03717C575.5383,266.61517,577.1227,269.07446,578.3289,272.29095C579.84235,276.31128,579.866,276.78424,579.7949,295.4198C579.7005,311.80878,579.7005,312.21075,579.2039,313.96082C577.4775,319.92053,574.0246,324.7212,569.153,327.96124C565.17993,330.60974,562.2475,331.57935,557.25745,331.91046C552.8351,332.2182,532.07104,332.1944,529.2333,331.91064C520.1283,330.94098,512.1113,324.55566,509.08417,315.82922C507.8781,312.3291,507.8781,312.44733,507.7835,295.9638C507.71252,285.22723,507.7599,279.74066,507.94904,278.10864C509.03687,268.7437,515.28033,260.9867,524.196,257.98328C527.76697,256.77704,528.4291,256.72986,544.6051,256.8009C559.0783,256.8479,559.6933,256.87177,561.51434,257.34454 Z M671.69574,257.0609C681.10803,258.69275,688.55743,265.62195,691.0644,275.03424C691.53735,276.8551,691.56085,277.47034,691.6556,293.24414C691.75024,310.9101,691.6792,311.85608,690.5204,315.4035C688.9597,320.06213,686.68915,323.34937,682.7399,326.6604C680.68243,328.38696,676.189,330.70435,673.72955,331.3429C671.29364,331.9577,667.0841,332.1233,654.6921,332.14697C639.91113,332.14697,638.20844,331.9577,633.8334,329.9004C630.9008,328.5288,629.2691,327.4171,626.9751,325.21796C623.68787,322.04877,621.5832,318.52515,620.32965,313.9372L619.6913,311.6905L619.6913,294.4265L619.6913,277.16272L620.32965,274.86865C622.93115,265.45636,630.1204,258.7871,639.48566,257.08453C642.15784,256.5879,668.88153,256.5642,671.69574,257.0609 Z M783.4378,257.06073C792.6846,258.57434,800.25244,265.50354,802.7828,274.82117L803.4213,277.16254L803.516,293.1258C803.61053,311.02814,803.5397,311.99774,802.0497,316.18378C800.9617,319.1872,799.401,321.7885,797.2015,324.15344C794.1272,327.46448,790.5326,329.73468,786.2994,331.08264C783.3433,332.00507,779.13367,332.19415,764.58954,332.07593C750.9911,331.98138,750.66016,331.93408,746.92365,330.51514C743.16327,329.04883,739.0958,326.06903,736.4944,322.80536C734.8153,320.6772,732.7814,316.5385,732.09564,313.81903C731.55164,311.6905,731.55164,311.59595,731.55164,294.4265C731.55164,278.27423,731.5753,277.0445,732.0009,275.38898C733.15967,270.8009,735.09906,267.2771,738.1734,264.15564C741.9809,260.27692,746.2141,257.98303,751.2987,257.06073C754.04205,256.5641,780.387,256.5641,783.4378,257.06073 Z M-80.93808,852.76013C-80.20494,853.6349,-78.50223,860.18604,-77.74541,865.0814C-76.042786,875.93616,-74.24547,886.6256,-71.10015,904.5753C-69.6812,912.6161,-68.87711,918.00806,-68.14397,924.2987C-67.31621,931.3937,-66.96151,932.1029,-62.728256,934.9409C-60.316162,936.5491,-58.49517,937.5659,-57.951164,937.5659C-56.934265,937.5659,-53.079453,934.3972,-50.596336,931.53564C-48.727997,929.4071,-48.18416,928.4375,-47.947586,926.9475C-47.45101,923.6367,-45.890106,923.755,-42.484695,927.42053C-40.85285,929.17053,-39.504837,931.11,-38.795364,932.76526C-38.34606,933.7822,-38.298706,934.2079,-38.417,936.85657C-38.58255,940.87695,-39.97782,947.71155,-42.12992,955.20825C-43.998177,961.6172,-44.8732,968.452,-45.677284,982.9724C-45.961044,987.7024,-46.221207,991.6279,-46.26847,991.699C-46.33941,991.74634,-48.326042,992.1011,-50.71454,992.4794C-63.41414,994.44214,-65.77905,995.31726,-70.15418,999.645C-74.884,1004.35095,-76.160995,1007.4728,-77.24892,1017.0271C-77.769165,1021.66223,-77.7219,1025.4935,-77.10696,1027.6692C-76.23193,1030.8145,-72.89746,1037.3652,-69.72846,1042.0952C-67.434494,1045.5479,-66.11016,1047.1798,-62.79928,1050.6561C-59.914124,1053.6832,-58.707993,1055.4098,-58.991745,1056.1191C-59.46473,1057.3727,-66.8669,1055.7408,-71.10015,1053.4468C-71.998764,1052.9503,-73.55967,1052.3116,-74.52923,1052.0042C-75.49887,1051.7205,-76.8232,1051.2238,-77.48533,1050.8927C-80.96176,1049.1663,-86.04636,1043.9872,-89.12074,1039.0681C-90.30316,1037.1998,-93.826935,1029.4192,-94.89115,1026.3687C-98.67501,1015.4663,-98.27293,986.496,-93.897835,958.3772C-92.880936,951.84985,-91.343735,944.37683,-89.54634,937.0929C-86.59024,925.22107,-85.73893,920.1129,-85.40778,912.427C-85.19496,907.4132,-84.76925,904.05505,-84.2726,903.4166C-83.44496,902.376,-82.92471,893.29456,-82.56993,872.8855C-82.33336,860.3513,-82.0496,853.6824,-81.71849,852.8074C-81.52936,852.33435,-81.29278,852.33435,-80.93808,852.76013 Z M208.57455,859.8075C208.9766,860.23303,209.87521,861.4154,210.56119,862.47974C212.97327,866.16895,213.06787,866.64197,211.578,867.328C209.47318,868.2975,207.55765,867.70605,206.56442,865.7905C206.16245,865.01025,206.06775,864.44275,206.09134,862.598C206.09134,861.3683,206.23322,860.0675,206.37509,859.6892C206.75363,858.8141,207.60492,858.83777,208.57455,859.8075 Z M197.86142,866.09814C197.97961,866.85486,196.08777,870.2606,194.78702,871.6085C193.86475,872.57837,193.53363,872.76733,192.82416,872.76733C190.57745,872.76733,190.48291,868.65247,192.70587,866.80786C193.88849,865.79065,194.90533,865.4597,196.4899,865.5071C197.64868,865.55444,197.79056,865.62524,197.86142,866.09814 Z M180.88141,875.72327C181.40164,876.3384,180.92865,877.1896,178.89487,879.3656C177.78333,880.548,176.76651,881.87244,176.6008,882.3452L176.29346,883.173L172.50958,883.173L168.70206,883.173L169.64801,882.3926C170.16827,881.9905,171.32706,880.9735,172.20209,880.16956C174.73264,877.8519,175.7732,877.04785,177.38129,876.1727C178.98938,875.3213,180.38474,875.1323,180.88141,875.72327 Z M166.6919,895.4706L166.6919,906.3491L169.41153,906.3491L172.13123,906.3491L172.13123,913.8932L172.13123,921.4607L175.39484,921.5554C177.16849,921.6029,206.35144,921.7682,240.24063,921.9337C297.58978,922.19385,321.66458,922.40674,321.94843,922.7141C322.16125,922.927,322.5396,933.2855,322.7761,945.84314C322.96533,956.17773,323.27277,1002.7195,323.55652,1064.964L323.60385,1077.5691L287.06598,1077.6163C266.9642,1077.6635,250.19684,1077.6635,249.7713,1077.6163L249.03815,1077.5453L250.29153,1074.7783C251.80508,1071.4675,255.991,1062.5282,260.50784,1052.9739C264.5993,1044.3892,265.40323,1042.3081,267.17703,1035.9227C268.9271,1029.6793,269.77835,1027.1254,271.69403,1022.5847C273.51495,1018.23315,273.988,1016.9088,274.43723,1014.7804C274.9339,1012.4155,276.40018,1010.28723,281.10626,1004.96606C284.27533,1001.4186,285.69427,998.74634,286.6165,994.56055C287.27878,991.4387,287.8227,985.4319,287.86996,980.7256C287.89365,976.9182,287.8227,976.256,287.32605,974.52954C286.71118,972.3065,284.27533,967.19836,282.69083,964.7388C279.07245,959.1576,273.68048,956.17773,261.80865,953.1979C255.61264,951.6371,243.57516,949.2722,231.84521,947.2621C220.39902,945.323,208.7873,943.19446,204.53052,942.272C202.11826,941.72815,199.4696,941.1604,198.61816,940.9949C196.22964,940.4984,190.7667,940.2146,181.49619,940.0491C176.83728,939.9546,172.43857,939.81274,171.72919,939.69446C169.69528,939.3634,168.18173,938.4883,165.5567,936.19434C162.97897,933.92395,161.1579,932.5995,160.61404,932.5995C159.78629,932.5995,154.48886,928.4845,147.89087,922.7379C141.95483,917.5587,138.3602,915.09937,136.70483,915.09937C134.45813,915.09937,126.96127,910.51135,126.96127,909.11597C126.96127,908.5012,127.88364,908.0282,129.61002,907.7916C131.92767,907.4606,132.54254,907.0585,133.34662,905.3086C133.86685,904.14966,134.17429,903.7477,134.83652,903.4402C135.7351,903.0145,138.2656,902.70703,144.27249,902.3523C148.50574,902.09204,149.99554,901.64294,150.27936,900.5786C150.49219,899.7036,150.30304,898.02454,149.66452,895.3523C149.02597,892.5615,149.12051,891.59204,150.16116,890.40967C151.08337,889.34534,152.24225,888.9197,156.04977,888.2102C159.73901,887.5477,162.90793,886.5548,164.91806,885.44324C165.69858,884.9938,166.40805,884.63916,166.52625,884.61536C166.62097,884.6155,166.6919,889.4873,166.6919,895.4706 Z M510.432,922.40674C513.4354,922.5724,513.41187,922.5486,513.83746,925.2683C514.59424,929.9745,514.8781,953.5762,515.1855,1033.9835L515.3274,1077.5691L430.02502,1077.569L344.72253,1077.5691L344.8644,1066.5011C344.93533,1060.4233,345.05362,1038.3114,345.12457,1017.3817C345.31372,962.7521,345.81036,924.5587,346.3307,922.8562C346.4489,922.4778,347.1111,922.4304,354.77344,922.3595C372.17917,922.2412,507.94885,922.2648,510.432,922.40674 Z M186.79367,1024.7133C187.40845,1025.4463,186.48618,1028.426,183.34085,1035.6628C180.83405,1041.3859,179.27322,1045.4536,178.30359,1048.7172C176.55362,1054.5111,174.92175,1059.1936,173.71564,1061.8424C171.63455,1066.383,171.58731,1066.5723,171.46902,1072.4135L171.37448,1077.5692L105.25131,1077.569L39.104797,1077.5691L39.175735,1072.319C39.223083,1069.4098,39.29402,1067.0216,39.29402,1066.9978C39.341278,1066.9741,49.41588,1067.2341,58.615356,1067.5183C61.145737,1067.589,63.865524,1067.7073,64.64584,1067.7545C65.426254,1067.8256,67.24733,1067.9202,68.6662,1067.9911C73.15962,1068.2274,77.29817,1068.5587,80.4435,1068.9607C85.03136,1069.5519,86.23758,1069.1498,93.82889,1064.4673C98.416824,1061.6295,102.10599,1059.5956,102.673676,1059.5956C104.11621,1059.5956,107.99469,1053.5414,109.768326,1048.5514C110.97453,1045.1697,111.44743,1039.2572,111.02173,1032.9193L110.83266,1030.2706L112.204254,1030.2706C112.98468,1030.2706,117.54895,1030.1051,122.3497,1029.9159C140.11026,1029.2063,155.74225,1029.0409,172.72241,1029.3485C179.10757,1029.4666,178.98938,1029.4905,182.30035,1026.8418C185.46927,1024.3113,186.17874,1023.9802,186.79367,1024.7133 Z M-0.08181763,1067.7075C0.627655,1068.4406,0.27296448,1071.5149,-1.1223145,1076.3159L-1.4770813,1077.5692L-7.152893,1077.5691C-10.913071,1077.5692,-12.805,1077.4983,-12.805,1077.3326C-12.805,1076.8597,-10.865807,1071.0657,-10.39283,1070.1196C-9.399506,1068.133,-8.666443,1067.731,-5.4264984,1067.3999C-2.5176697,1067.1161,-0.57847595,1067.2108,-0.08181763,1067.7075 Z"/>
</g>
<g style="fill:rgb(0,0,0); fill-opacity:1.0; stroke-linejoin: miter">
<path d="M651.99585,554.35474C649.15814,555.11145,646.1546,557.16895,644.23883,559.6992C643.7187,560.38525,635.48895,574.45654,625.95825,590.98724C616.42755,607.4943,596.2785,642.47144,581.14294,668.6747C566.0312,694.878,553.3553,716.89545,553.0241,717.5813C550.9195,721.74347,551.014,727.04095,553.2607,731.03754C554.3486,733.0005,556.54785,735.34155,558.58185,736.6897C565.6054,741.3483,573.9301,740.3078,579.0145,734.13556C579.5822,733.4498,586.1566,722.2873,593.60596,709.3512C601.0792,696.4151,608.3157,683.90466,609.6874,681.5633C611.0591,679.2222,625.3432,654.48517,641.4483,626.57916C659.9422,594.5819,670.9625,575.2368,671.341,574.1963C672.05054,572.20984,672.2869,568.3788,671.83765,566.2975C670.6788,560.8109,665.4051,555.7263,659.46924,554.33105C657.6245,553.8817,653.67523,553.9052,651.99585,554.35474 Z"/>
</g>
<g style="fill:rgb(0,0,0); fill-opacity:1.0; stroke-linejoin: miter">
<path d="M511.4726,571.0984C509.98285,571.52386,507.94897,572.47003,506.601,573.39246C505.1819,574.33826,444.71112,634.69116,443.22125,636.63025C441.96783,638.26196,440.76172,640.7689,440.28882,642.6608C439.7685,644.71814,439.88672,648.3601,440.5252,650.46497C441.73138,654.46173,439.86304,652.4516,474.58008,687.1449C505.82056,718.3854,506.4353,719.00024,508.30365,719.92255C510.99976,721.2941,513.0099,721.74347,515.63495,721.5779C521.3579,721.22314,526.6318,717.62866,529.23315,712.3076C530.4392,709.8717,530.8886,708.0743,530.8886,705.6857C530.8886,702.3512,530.0372,699.89154,527.9323,696.9356C527.3649,696.1552,515.8241,684.44885,502.2968,670.9214C488.74585,657.39417,477.67804,646.2316,477.67804,646.1134C477.67804,645.99536,488.53302,635.09314,501.8001,621.9205C515.0437,608.7243,526.5609,597.1124,527.3649,596.11914C528.9967,594.0853,529.9663,592.2171,530.55743,589.92303C531.07794,587.84186,530.9122,584.2474,530.2029,582.1189C528.57104,577.34174,524.36145,573.1085,519.5371,571.4532C517.6452,570.79095,513.19904,570.60175,511.4726,571.0984 Z"/>
</g>
<g style="fill:rgb(0,0,0); fill-opacity:1.0; stroke-linejoin: miter">
<path d="M698.0881,571.1218C692.0812,572.75366,687.1149,577.933,685.93243,583.82153C685.2467,587.20325,685.625,589.9466,687.23315,593.234L688.22644,595.24414L713.602,620.667L738.9773,646.0895L713.90924,671.2761C687.3277,697.9997,687.39856,697.9524,686.26337,701.3106C683.63837,709.0913,688.6991,718.1488,697.2603,720.9867C699.5779,721.74347,703.4091,721.7673,705.77386,721.0104C709.4868,719.8279,708.0442,721.1523,741.9808,687.23914C776.1537,653.0897,774.6874,654.6742,775.8936,650.8195C776.603,648.57275,776.76874,645.21454,776.2721,642.92065C776.05914,641.95105,775.46783,640.2483,774.92395,639.1368L773.93066,637.10297L742.5721,605.6968C720.5311,583.63226,710.7404,573.9834,709.6526,573.2267C707.0513,571.5003,705.3012,570.9564,702.1085,570.86176C700.19293,570.7909,699.01056,570.8856,698.0881,571.1218 Z"/>
</g>
<g style="fill:rgb(0,0,0); fill-opacity:1.0; stroke-linejoin: miter">
<path d="M751.81866,885.8685C749.0755,886.9093,747.3728,888.44653,746.0247,891.2134L745.26794,892.7505L745.19696,912.5449L745.1261,932.33923L744.25116,932.5758C735.6901,934.7749,732.45026,935.8158,725.4027,938.58276C722.94324,939.5525,719.34845,941.0896,717.40936,942.01184L713.93274,943.69104L705.3719,933.4745C687.8952,912.61597,689.0304,913.89307,687.1148,912.92334C683.89844,911.29175,679.54706,911.5044,676.75635,913.4674C675.4321,914.38965,645.0901,939.9072,643.62396,941.3262C640.7861,944.06934,639.7219,947.8533,640.8096,951.4242C641.0934,952.32275,641.61383,953.52905,642.0158,954.12036C642.3943,954.7114,647.999,961.45154,654.4553,969.13745C660.9115,976.7997,666.25635,983.20874,666.3271,983.3744C666.3981,983.5161,665.8304,984.4856,665.07367,985.50256C660.55676,991.60425,654.57367,1001.8916,651.23895,1009.27014C650.45856,1010.9967,649.8674,1012.06067,649.65466,1012.06067C649.4417,1012.06067,641.0934,1010.61804,631.06635,1008.86804C621.0155,1007.11816,612.28876,1005.6753,611.62665,1005.6753C610.25494,1005.6753,608.3394,1006.19543,606.77856,1006.99976C604.5556,1008.1111,602.4744,1010.9254,601.8595,1013.59766C600.93726,1017.71277,594.4809,1055.4806,594.4809,1056.8284C594.4809,1058.9097,594.97754,1060.6122,596.1602,1062.3861C597.7684,1064.7748,599.89655,1066.1461,603.01825,1066.761C603.9879,1066.9739,612.52527,1068.4875,621.985,1070.1431L639.1779,1073.1938L639.3198,1074.7311C640.26575,1085.9171,641.5665,1093.603,643.95496,1102.3297C644.4753,1104.2217,644.83,1105.8534,644.71185,1105.9479C644.6171,1106.0426,637.23883,1110.2994,628.323,1115.4312C610.728,1125.5531,610.16034,1125.9312,608.8833,1128.6509C607.6771,1131.2051,607.5353,1133.9957,608.4813,1136.5262C609.2617,1138.631,630.2386,1174.7433,631.4448,1176.0679C634.25885,1179.1656,639.08325,1180.1353,642.8199,1178.3617C643.62396,1177.9833,651.40466,1173.5609,660.0839,1168.5474L675.8814,1159.4187L679.2396,1162.777C685.31757,1168.8783,694.37506,1176.3042,700.05084,1179.8516C700.9023,1180.3955,701.16235,1180.6793,701.0914,1181.034C701.0442,1181.2942,698.15894,1189.3348,694.6825,1198.889C691.20593,1208.4434,688.25,1216.8624,688.1318,1217.5719C687.5167,1221.4269,689.85815,1226.0856,693.28723,1227.8357C695.4629,1228.9236,734.0819,1242.8765,735.7374,1243.1602C738.528,1243.6569,741.5786,1242.8054,743.8253,1240.9371C745.7411,1239.3763,746.19025,1238.2885,752.95386,1219.7003L759.4339,1201.8923L760.97107,1202.0581C761.8223,1202.1289,763.8088,1202.3181,765.3698,1202.4836C769.7449,1202.9093,782.96466,1202.8385,788.1673,1202.3418C790.5559,1202.1289,792.54254,1201.987,792.5899,1202.0342C792.6372,1202.0817,795.54596,1210.0277,799.06976,1219.7003C802.5934,1229.3964,805.7624,1237.7919,806.09344,1238.3832C808.15094,1241.8833,812.3133,1243.846,816.2862,1243.1602C817.9654,1242.8765,856.48987,1228.9708,858.6894,1227.8594C862.0711,1226.1329,864.41235,1221.7106,863.9631,1217.9268C863.8685,1217.2646,860.9361,1208.8217,857.4123,1199.1256C853.91223,1189.4296,850.9796,1181.2942,850.93243,1181.034C850.8616,1180.6793,851.12164,1180.3955,851.97296,1179.8516C857.6489,1176.3042,866.7301,1168.8547,872.7842,1162.8005L876.1661,1159.4187L891.94006,1168.5474C900.64294,1173.5609,908.42346,1178.007,909.2749,1178.4089C910.69385,1179.0948,911.0011,1179.1421,913.31885,1179.142C915.7074,1179.142,915.87305,1179.1183,917.59937,1178.2432C918.8291,1177.652,919.75134,1176.9663,920.55554,1176.1149C921.33606,1175.2397,924.93054,1169.2329,932.33264,1156.4149C938.1742,1146.2933,943.18774,1137.4011,943.47156,1136.6915C944.91394,1133.0732,944.1101,1129.053,941.343,1126.1677C940.3025,1125.0564,937.8666,1123.5664,923.7245,1115.431C914.7141,1110.2284,907.2883,1105.9242,907.21716,1105.8534C907.1465,1105.806,907.38293,1104.8127,907.71387,1103.6539C910.0316,1095.7551,911.90015,1085.302,912.5858,1076.3864C912.72766,1074.6364,912.8695,1073.1937,912.89307,1073.1937C912.9169,1073.17,921.24133,1071.6802,931.38684,1069.9064C941.50854,1068.109,950.306,1066.4772,950.89734,1066.2881C954.30273,1065.1293,956.92773,1061.9602,957.5663,1058.2238C957.8264,1056.6156,957.80286,1056.3317,954.1138,1035.4496C952.0797,1023.8142,950.2352,1013.6924,950.0222,1012.93567C949.2184,1010.0504,946.8297,1007.4254,943.9917,1006.3374C941.2959,1005.32056,941.03564,1005.344,921.12317,1008.8441C911.0487,1010.61804,902.6294,1012.06067,902.39307,1012.06067C902.1328,1012.06067,901.9435,1011.9188,901.9435,1011.7534C901.9435,1011.2329,896.33875,1000.16504,894.37585,996.8069C892.41284,993.4724,888.6765,987.7728,886.68994,985.077C886.09875,984.2731,885.6494,983.5398,885.6731,983.42163C885.7203,983.3269,890.8994,977.1073,897.21387,969.5869C903.5281,962.0901,909.1328,955.35,909.70044,954.61707C912.2074,951.3058,912.32556,946.5051,909.9606,942.98157C909.3694,942.10645,904.80505,938.10986,892.5547,927.7987C873.18616,911.4807,873.80096,911.90625,869.8044,911.90625C867.6522,911.90625,867.1084,912.001,865.855,912.52136C865.0746,912.8524,864.03394,913.4198,863.53723,913.822C862.8752,914.3187,839.24976,942.1775,838.3038,943.5254C838.2328,943.64355,836.52997,942.9342,834.5197,941.96436C829.97906,939.7886,827.73236,938.8428,822.4586,936.9745C818.7221,935.65027,812.6442,933.7582,810.0192,933.09595C809.4517,932.954,808.5768,932.71765,808.0564,932.59924L807.1103,932.33923L807.1103,914.08203C807.1103,904.03125,806.99207,895.04443,806.8739,894.09863C806.37726,890.2201,803.7759,887.02734,800.0629,885.7976C798.6441,885.30115,798.242,885.30115,775.9645,885.3247L753.30865,885.3247L751.81866,885.8685 Z M781.7585,1008.74976C788.64044,1009.48267,794.6237,1011.2566,800.96155,1014.42554C806.7083,1017.31067,811.1544,1020.52686,815.7424,1025.1621C824.4453,1033.9596,829.8372,1045.1221,831.49274,1057.7035C831.9185,1060.9908,831.84753,1068.1328,831.3744,1071.5383C830.121,1080.4066,827.28326,1087.9744,822.6007,1095.0217C814.9619,1106.5391,803.23193,1114.9346,790.1776,1118.2218C780.6471,1120.6338,771.87335,1120.7048,762.6264,1118.4818C755.57904,1116.7556,748.1295,1113.1608,741.9569,1108.4784C739.3558,1106.4917,734.8152,1102.0457,732.6393,1099.3263C725.89935,1090.9543,721.7134,1080.8798,720.5547,1070.1904C720.24725,1067.2341,720.24725,1061.18,720.5782,1058.224C722.2337,1042.9465,730.2981,1028.8517,742.714,1019.58105C751.1093,1013.31384,760.8764,1009.64844,771.755,1008.6787C773.90717,1008.4895,779.60645,1008.53687,781.7585,1008.74976 Z"/>
</g>
</g>
</g>
</svg>