<?xml version="1.0" encoding="UTF-8" standalone="no"?>
<!-- Created with Inkscape (http://www.inkscape.org/) -->

<svg
   xmlns:dc="http://purl.org/dc/elements/1.1/"
   xmlns:cc="http://creativecommons.org/ns#"
   xmlns:rdf="http://www.w3.org/1999/02/22-rdf-syntax-ns#"
   xmlns:svg="http://www.w3.org/2000/svg"
   xmlns="http://www.w3.org/2000/svg"
   xmlns:sodipodi="http://sodipodi.sourceforge.net/DTD/sodipodi-0.dtd"
   xmlns:inkscape="http://www.inkscape.org/namespaces/inkscape"
   width="32"
   height="32"
   viewBox="0 0 8.466667 8.466667"
   version="1.1"
   id="svg1337"
   inkscape:version="0.92.4 (5da689c313, 2019-01-14)"
   sodipodi:docname="Icon-Qualität-Vektor.svg"
   inkscape:export-filename="C:\Users\konra\OneDrive\Desktop\Websites\Grafikingenieur.de\Anfragen\Fingerfood Stuttgart\Logo+Icon Marc\Logo klein Raster.png"
   inkscape:export-xdpi="1200"
   inkscape:export-ydpi="1200">
  <defs
     id="defs1331" />
  <sodipodi:namedview
     id="base"
     pagecolor="#ffffff"
     bordercolor="#666666"
     borderopacity="1.0"
     inkscape:pageopacity="0.0"
     inkscape:pageshadow="2"
     inkscape:zoom="11.2"
     inkscape:cx="12.414931"
     inkscape:cy="17.891025"
     inkscape:document-units="mm"
     inkscape:current-layer="g2121"
     showgrid="false"
     inkscape:window-width="1920"
     inkscape:window-height="986"
     inkscape:window-x="-11"
     inkscape:window-y="-11"
     inkscape:window-maximized="1"
     units="px" />
  <metadata
     id="metadata1334">
    <rdf:RDF>
      <cc:Work
         rdf:about="">
        <dc:format>image/svg+xml</dc:format>
        <dc:type
           rdf:resource="http://purl.org/dc/dcmitype/StillImage" />
        <dc:title></dc:title>
        <cc:license
           rdf:resource="http://creativecommons.org/licenses/by/4.0/" />
      </cc:Work>
      <cc:License
         rdf:about="http://creativecommons.org/licenses/by/4.0/">
        <cc:permits
           rdf:resource="http://creativecommons.org/ns#Reproduction" />
        <cc:permits
           rdf:resource="http://creativecommons.org/ns#Distribution" />
        <cc:requires
           rdf:resource="http://creativecommons.org/ns#Notice" />
        <cc:requires
           rdf:resource="http://creativecommons.org/ns#Attribution" />
        <cc:permits
           rdf:resource="http://creativecommons.org/ns#DerivativeWorks" />
      </cc:License>
    </rdf:RDF>
  </metadata>
  <g
     inkscape:label="Ebene 1"
     inkscape:groupmode="layer"
     id="layer1"
     transform="translate(0,-288.53333)">
    <g
       transform="translate(227.81052,-3.6629813)"
       id="g1303">
      <g
         transform="matrix(3.4205075,0,0,3.4205075,569.12278,-544.50992)"
         id="g2073"
         style="stroke-width:0.29235426">
        <g
           style="stroke-width:0.4929972"
           id="g2088-6-3"
           transform="matrix(0.59301406,0,0,0.59301406,-242.71893,56.24557)">
          <g
             transform="matrix(0.49299722,0,0,0.49299722,132.38196,169.08758)"
             id="g2152">
            <g
               id="g2121">
              <g
                 id="g819"
                 transform="matrix(0.33866001,0,0,0.33866001,-154.97463,204.63798)"
                 style="stroke-width:1.45572901">
                <path
                   inkscape:connector-curvature="0"
                   id="path2371-5"
                   transform="matrix(0.26458333,0,0,0.26458333,-235.23614,286.80573)"
                   d="M 42.917969,4.6230469 C 41.311745,4.5909351 39.724505,4.7131928 38.171875,4.9785156 28.856058,6.5704527 20.852963,13.325614 18.0625,22.910156 a 0.94497639,0.94497639 0 1 0 1.808594,0.523438 C 23.319459,11.58931 35.318332,4.437538 47.376953,7.0390625 59.435574,9.6405492 67.417425,21.105874 65.675781,33.318359 63.934175,45.530845 53.06684,54.306589 40.761719,53.433594 28.456597,52.560598 18.933594,42.339944 18.933594,30.003906 a 0.94497639,0.94497639 0 1 0 -1.888672,0 c 0,9.168867 4.891627,17.268935 12.27539,21.730469 v 0.466797 29.320312 l 12.4375,-12.134765 12.181641,12.474609 V 52.607422 C 61.069446,48.966871 66.345486,42.035571 67.550781,33.583984 69.429925,20.407304 60.786037,8.0002256 47.775391,5.1933594 46.14906,4.8425625 44.524192,4.6551587 42.917969,4.6230469 Z m -0.921875,3.09375 C 40.584535,7.7460268 39.156459,7.9106429 37.728516,8.21875 26.304969,10.683229 18.715357,21.579112 20.365234,33.148438 22.015149,44.717761 32.344869,53.057505 44.001953,52.230469 55.659037,51.403433 64.708984,41.690281 64.708984,30.003906 a 0.9453125,0.9453125 0 0 0 -1.890625,0 c 0,10.712429 -8.263624,19.57784 -18.949218,20.335938 C 33.183585,51.097941 23.746791,43.487942 22.234375,32.882812 20.721997,22.277685 27.655469,12.323552 38.126953,10.064453 48.598475,7.8053541 59.013331,14.011457 62.007812,24.296875 a 0.94503982,0.94503982 0 1 0 1.814454,-0.523437 C 61.372225,15.35809 54.346123,9.4254666 46.166016,8.0273438 44.802664,7.7943168 43.407653,7.687567 41.996094,7.7167969 Z m 0.330078,7.1347651 -4.822266,9.988282 -10.960937,1.691406 8.009765,7.671875 -1.779296,10.947266 9.771484,-5.248047 9.861328,5.076172 -1.970703,-10.916016 7.875,-7.810547 -10.990235,-1.498047 z M 31.208984,53.345703 c 3.595465,1.381606 7.355493,2.336469 11.214844,2.347656 h 0.0059 c 3.283918,-0.01134 6.500501,-0.730332 9.61914,-1.742187 V 77.224609 L 41.789062,66.712891 31.210938,77.033203 Z"
                   style="opacity:1;fill:#000000;fill-opacity:1;stroke:none;stroke-width:13.39229012;stroke-linecap:round;stroke-miterlimit:4;stroke-dasharray:none;stroke-dashoffset:0;stroke-opacity:0.54166667" />
              </g>
            </g>
          </g>
        </g>
      </g>
    </g>
  </g>
</svg>
