<?xml version="1.0" encoding="UTF-8"?>
<svg width="500" height="500" version="1.1" viewBox="0 0 500.00001 500.00001" xmlns="http://www.w3.org/2000/svg">
 <g transform="matrix(7.0274 0 0 7.0274 74.315 -6969.7)">
  <circle cx="25" cy="1027.4" r="23.151" fill="none" stroke="#555" stroke-width="2.0801"/>
  <path d="m12.077 1016.1c-0.56371 0-1.0174 0.4538-1.0174 1.0176v16.552c0 0.5637 0.45372 1.0174 1.0174 1.0174h9.7682v3.1252h-1.1081c-0.20492 0-0.36994 0.165-0.36994 0.37 0 0.2049 0.16503 0.3699 0.36994 0.3699h8.5251c0.20492 0 0.36994-0.165 0.36994-0.3699 0-0.205-0.16503-0.37-0.36994-0.37h-1.1081v-3.1252h9.7682c0.56371 0 1.0174-0.4537 1.0174-1.0174v-16.552c0-0.5638-0.45371-1.0176-1.0174-1.0176zm0.27816 1.2597h25.289v15.961h-25.289z" fill="#555"/>
  <g fill="#555" fill-rule="evenodd">
   <path d="m35.062 1020.8-4.168 4.5645-5.4727-1.0117-4.2363 4.1699-3.8047-1.5625-3.3652 3.9961 0.38281 0.3203 3.1289-3.7168 3.7734 1.5508 4.2871-4.2188 5.4883 1.0157 4.3555-4.7696-0.36914-0.3379z" color="#000000" color-rendering="auto" image-rendering="auto" shape-rendering="auto" solid-color="#000000" style="block-progression:tb;isolation:auto;mix-blend-mode:normal;text-decoration-color:#000000;text-decoration-line:none;text-decoration-style:solid;text-indent:0;text-transform:none;white-space:normal"/>
   <path d="m14.523 1030.7c0.21112 0.1778 0.23817 0.4934 0.06039 0.7045s-0.49341 0.2382-0.70452 0.06c-0.21112-0.1778-0.23817-0.4934-0.06039-0.7045s0.49341-0.2382 0.70452-0.06z" stroke="#555" stroke-width=".1pt"/>
   <path d="m17.93 1027.1c0.06577 0.2681-0.0984 0.539-0.36645 0.6048-0.26805 0.066-0.53897-0.098-0.60474-0.3665-0.06577-0.268 0.0984-0.5389 0.36645-0.6047 0.26805-0.066 0.53897 0.098 0.60474 0.3664z" stroke="#555" stroke-width=".1pt"/>
   <path d="m21.724 1028.7c0.05317 0.2708-0.12349 0.5338-0.39432 0.587-0.27083 0.053-0.53378-0.1235-0.58695-0.3944-0.05317-0.2708 0.12349-0.5337 0.39432-0.5869 0.27083-0.053 0.53379 0.1235 0.58695 0.3943z" stroke="#555" stroke-width=".1pt"/>
   <path d="m25.974 1024.5c0.08081 0.2639-0.06779 0.5437-0.33169 0.6245-0.2639 0.081-0.54367-0.068-0.62448-0.3317-0.08081-0.2639 0.06779-0.5437 0.33169-0.6245 0.2639-0.081 0.54367 0.068 0.62448 0.3317z" stroke="#555" stroke-width=".1pt"/>
   <path d="m31.45 1025.5c0.08783 0.2616-0.05325 0.5453-0.3149 0.6331-0.26165 0.088-0.54529-0.053-0.63312-0.3149-0.08783-0.2617 0.05325-0.5453 0.3149-0.6331 0.26165-0.088 0.54529 0.053 0.63312 0.3149z" stroke="#555" stroke-width=".1pt"/>
   <path d="m35.578 1020.6c0.20382 0.1861 0.2182 0.5026 0.0321 0.7064s-0.50256 0.2182-0.70638 0.032c-0.20382-0.1861-0.2182-0.5025-0.0321-0.7064 0.1861-0.2038 0.50256-0.2182 0.70638-0.032z" stroke="#555" stroke-width=".1pt"/>
  </g>
 </g>
</svg>
