<?xml version="1.0" encoding="UTF-8" standalone="no"?>
<!DOCTYPE svg PUBLIC "-//W3C//DTD SVG 1.1//EN" "http://www.w3.org/Graphics/SVG/1.1/DTD/svg11.dtd">
<svg width="100%" height="100%" viewBox="0 0 500 500" version="1.1" xmlns="http://www.w3.org/2000/svg" xmlns:xlink="http://www.w3.org/1999/xlink" xml:space="preserve" xmlns:serif="http://www.serif.com/" style="fill-rule:evenodd;clip-rule:evenodd;stroke-linejoin:round;stroke-miterlimit:2;">
    <g transform="matrix(0.818935,-0.818935,0.818935,0.818935,-83.9365,203.141)">
        <g id="Search">
            <path d="M167.582,287.681C101.564,283.702 49.176,228.827 49.176,161.813C49.176,92.217 105.679,35.714 175.275,35.714C244.871,35.714 301.374,92.217 301.374,161.813C301.374,228.827 248.985,283.702 182.967,287.681L182.967,318.681L186.264,318.681C192.329,318.681 197.253,323.605 197.253,329.67L197.253,454.945C197.253,461.01 192.329,465.934 186.264,465.934L164.286,465.934C158.221,465.934 153.297,461.01 153.297,454.945L153.297,329.67C153.297,323.605 158.221,318.681 164.286,318.681L167.582,318.681L167.582,287.681ZM175.275,60.989C230.921,60.989 276.099,106.167 276.099,161.813C276.099,217.46 230.921,262.637 175.275,262.637C119.628,262.637 74.451,217.46 74.451,161.813C74.451,106.167 119.628,60.989 175.275,60.989ZM259.877,158.903C259.105,136.465 249.452,115.253 233.04,99.933C198.887,68.051 145.276,69.895 113.394,104.048C110.64,106.998 110.8,111.629 113.75,114.383C116.7,117.137 121.331,116.978 124.085,114.028C150.458,85.776 194.808,84.25 223.06,110.624C236.636,123.297 244.622,140.845 245.261,159.406C245.399,163.439 248.787,166.601 252.82,166.463C256.854,166.324 260.016,162.937 259.877,158.903Z" style="fill:rgb(40,40,40);"/>
        </g>
    </g>
</svg>
